<mxfile host="app.diagrams.net" modified="2021-02-06T11:28:13.989Z" agent="5.0 (Windows NT 10.0; Win64; x64) AppleWebKit/537.36 (KHTML, like Gecko) Chrome/88.0.4324.150 Safari/537.36" etag="HnnMggYfjtwatacZT7kz" version="14.2.9" type="github">
  <diagram id="o1sKu1jpbNbeaetWaV6L" name="Page-1">
    <mxGraphModel dx="1422" dy="762" grid="1" gridSize="10" guides="1" tooltips="1" connect="1" arrows="1" fold="1" page="1" pageScale="1" pageWidth="827" pageHeight="1169" math="0" shadow="0">
      <root>
        <mxCell id="0" />
        <mxCell id="1" parent="0" />
        <mxCell id="2rsVLe3R_XvaNPSrzZ8c-10" style="edgeStyle=orthogonalEdgeStyle;rounded=0;orthogonalLoop=1;jettySize=auto;html=1;exitX=0.5;exitY=1;exitDx=0;exitDy=0;entryX=0.5;entryY=0;entryDx=0;entryDy=0;" edge="1" parent="1" source="2rsVLe3R_XvaNPSrzZ8c-1" target="2rsVLe3R_XvaNPSrzZ8c-2">
          <mxGeometry relative="1" as="geometry" />
        </mxCell>
        <mxCell id="2rsVLe3R_XvaNPSrzZ8c-1" value="Display Art&lt;br&gt;" style="rounded=0;whiteSpace=wrap;html=1;" vertex="1" parent="1">
          <mxGeometry x="354" y="70" width="120" height="60" as="geometry" />
        </mxCell>
        <mxCell id="2rsVLe3R_XvaNPSrzZ8c-11" style="edgeStyle=orthogonalEdgeStyle;rounded=0;orthogonalLoop=1;jettySize=auto;html=1;exitX=0.5;exitY=1;exitDx=0;exitDy=0;entryX=0.5;entryY=0;entryDx=0;entryDy=0;" edge="1" parent="1" source="2rsVLe3R_XvaNPSrzZ8c-2" target="2rsVLe3R_XvaNPSrzZ8c-3">
          <mxGeometry relative="1" as="geometry" />
        </mxCell>
        <mxCell id="2rsVLe3R_XvaNPSrzZ8c-2" value="Take an input" style="rounded=0;whiteSpace=wrap;html=1;" vertex="1" parent="1">
          <mxGeometry x="354" y="180" width="120" height="60" as="geometry" />
        </mxCell>
        <mxCell id="2rsVLe3R_XvaNPSrzZ8c-12" style="edgeStyle=orthogonalEdgeStyle;rounded=0;orthogonalLoop=1;jettySize=auto;html=1;exitX=0.5;exitY=1;exitDx=0;exitDy=0;entryX=0.5;entryY=0;entryDx=0;entryDy=0;" edge="1" parent="1" source="2rsVLe3R_XvaNPSrzZ8c-3" target="2rsVLe3R_XvaNPSrzZ8c-4">
          <mxGeometry relative="1" as="geometry" />
        </mxCell>
        <mxCell id="2rsVLe3R_XvaNPSrzZ8c-3" value="Take an operation" style="rounded=0;whiteSpace=wrap;html=1;" vertex="1" parent="1">
          <mxGeometry x="354" y="290" width="120" height="60" as="geometry" />
        </mxCell>
        <mxCell id="2rsVLe3R_XvaNPSrzZ8c-13" style="edgeStyle=orthogonalEdgeStyle;rounded=0;orthogonalLoop=1;jettySize=auto;html=1;exitX=0.5;exitY=1;exitDx=0;exitDy=0;entryX=0.5;entryY=0;entryDx=0;entryDy=0;" edge="1" parent="1" source="2rsVLe3R_XvaNPSrzZ8c-4" target="2rsVLe3R_XvaNPSrzZ8c-5">
          <mxGeometry relative="1" as="geometry" />
        </mxCell>
        <mxCell id="2rsVLe3R_XvaNPSrzZ8c-4" value="Take a second input&lt;br&gt;" style="rounded=0;whiteSpace=wrap;html=1;" vertex="1" parent="1">
          <mxGeometry x="354" y="400" width="120" height="60" as="geometry" />
        </mxCell>
        <mxCell id="2rsVLe3R_XvaNPSrzZ8c-14" style="edgeStyle=orthogonalEdgeStyle;rounded=0;orthogonalLoop=1;jettySize=auto;html=1;exitX=0.5;exitY=1;exitDx=0;exitDy=0;entryX=0.5;entryY=0;entryDx=0;entryDy=0;" edge="1" parent="1" source="2rsVLe3R_XvaNPSrzZ8c-5" target="2rsVLe3R_XvaNPSrzZ8c-9">
          <mxGeometry relative="1" as="geometry" />
        </mxCell>
        <mxCell id="2rsVLe3R_XvaNPSrzZ8c-5" value="Run the calculation to an accuracy of 2 decimal points" style="rounded=0;whiteSpace=wrap;html=1;" vertex="1" parent="1">
          <mxGeometry x="354" y="510" width="120" height="60" as="geometry" />
        </mxCell>
        <mxCell id="2rsVLe3R_XvaNPSrzZ8c-16" value="User answered no,&amp;nbsp;&lt;br&gt;use the previous answer&lt;br&gt;as the first input and&lt;br&gt;start from operation imput" style="edgeStyle=orthogonalEdgeStyle;rounded=0;orthogonalLoop=1;jettySize=auto;html=1;exitX=0;exitY=0.5;exitDx=0;exitDy=0;entryX=0;entryY=0.5;entryDx=0;entryDy=0;" edge="1" parent="1" source="2rsVLe3R_XvaNPSrzZ8c-7" target="2rsVLe3R_XvaNPSrzZ8c-3">
          <mxGeometry relative="1" as="geometry">
            <mxPoint x="170" y="312" as="targetPoint" />
            <Array as="points">
              <mxPoint x="170" y="790" />
              <mxPoint x="170" y="320" />
            </Array>
          </mxGeometry>
        </mxCell>
        <mxCell id="2rsVLe3R_XvaNPSrzZ8c-17" value="User selected yes.&lt;br&gt;Reset variables and start from input 1" style="edgeStyle=orthogonalEdgeStyle;rounded=0;orthogonalLoop=1;jettySize=auto;html=1;exitX=1;exitY=0.5;exitDx=0;exitDy=0;entryX=1;entryY=0.5;entryDx=0;entryDy=0;" edge="1" parent="1" source="2rsVLe3R_XvaNPSrzZ8c-7" target="2rsVLe3R_XvaNPSrzZ8c-2">
          <mxGeometry relative="1" as="geometry">
            <mxPoint x="650" y="330" as="targetPoint" />
            <Array as="points">
              <mxPoint x="650" y="790" />
              <mxPoint x="650" y="210" />
            </Array>
          </mxGeometry>
        </mxCell>
        <mxCell id="2rsVLe3R_XvaNPSrzZ8c-7" value="Yes/No" style="rhombus;whiteSpace=wrap;html=1;" vertex="1" parent="1">
          <mxGeometry x="311" y="750" width="206" height="80" as="geometry" />
        </mxCell>
        <mxCell id="2rsVLe3R_XvaNPSrzZ8c-15" style="edgeStyle=orthogonalEdgeStyle;rounded=0;orthogonalLoop=1;jettySize=auto;html=1;exitX=0.5;exitY=1;exitDx=0;exitDy=0;entryX=0.5;entryY=0;entryDx=0;entryDy=0;" edge="1" parent="1" source="2rsVLe3R_XvaNPSrzZ8c-9" target="2rsVLe3R_XvaNPSrzZ8c-7">
          <mxGeometry relative="1" as="geometry" />
        </mxCell>
        <mxCell id="2rsVLe3R_XvaNPSrzZ8c-9" value="Ask the user if they want to start a new calculation or use the last answer as one of the numbers" style="rounded=0;whiteSpace=wrap;html=1;" vertex="1" parent="1">
          <mxGeometry x="354" y="620" width="120" height="80" as="geometry" />
        </mxCell>
      </root>
    </mxGraphModel>
  </diagram>
</mxfile>
